STARTFONT 2.1
FONT --IBM3270-Regular-R-Medium--8-60-120-120-C-60-IBM-UGL
SIZE 6 120 120
FONTBOUNDINGBOX 6 8 0 0
STARTPROPERTIES 29
FONT_ASCENT 8
FONT_DESCENT 0
PIXEL_SIZE 8
RESOLUTION_X 120
RESOLUTION_Y 120
POINT_SIZE 60
FACE_NAME "IBM3270"
FOUNDRY ""
FAMILY_NAME "IBM3270"
WEIGHT_NAME "Regular"
RELATIVE_WEIGHT 50
SLANT "R"
SPACING "C"
SETWIDTH_NAME "Medium"
RELATIVE_SETWIDTH 50
ADD_STYLE_NAME ""
AVERAGE_WIDTH 60
UNDERLINE_POSITION 0
SUPERSCRIPT_SIZE 3
SUBSCRIPT_SIZE 3
SUPERSCRIPT_X 0
SUPERSCRIPT_Y 5
SUBSCRIPT_X 0
SUBSCRIPT_Y 1
STRIKEOUT_ASCENT 2
STRIKEOUT_DESCENT -1
DEFAULT_CHAR 32
CHARSET_REGISTRY "IBM"
CHARSET_ENCODING "UGL"
ENDPROPERTIES
CHARS 475
STARTCHAR char01
ENCODING 1
SWIDTH 600 0
DWIDTH 6 0
BBX 6 8 0 0
BITMAP 
00
00
00
00
00
00
00
00
ENDCHAR
STARTCHAR char02
ENCODING 2
SWIDTH 600 0
DWIDTH 6 0
BBX 6 8 0 0
BITMAP 
00
00
00
00
00
00
00
00
ENDCHAR
STARTCHAR char03
ENCODING 3
SWIDTH 600 0
DWIDTH 6 0
BBX 6 8 0 0
BITMAP 
00
00
00
00
00
00
00
00
ENDCHAR
STARTCHAR char04
ENCODING 4
SWIDTH 600 0
DWIDTH 6 0
BBX 6 8 0 0
BITMAP 
00
00
00
00
00
00
00
00
ENDCHAR
STARTCHAR char05
ENCODING 5
SWIDTH 600 0
DWIDTH 6 0
BBX 6 8 0 0
BITMAP 
00
00
00
00
00
00
00
00
ENDCHAR
STARTCHAR char06
ENCODING 6
SWIDTH 600 0
DWIDTH 6 0
BBX 6 8 0 0
BITMAP 
00
00
00
00
00
00
00
00
ENDCHAR
STARTCHAR bullet
ENCODING 7
SWIDTH 600 0
DWIDTH 6 0
BBX 6 8 0 0
BITMAP 
00
00
00
30
30
00
00
00
ENDCHAR
STARTCHAR char08
ENCODING 8
SWIDTH 600 0
DWIDTH 6 0
BBX 6 8 0 0
BITMAP 
00
00
00
00
00
00
00
00
ENDCHAR
STARTCHAR char09
ENCODING 9
SWIDTH 600 0
DWIDTH 6 0
BBX 6 8 0 0
BITMAP 
00
00
00
00
00
00
00
00
ENDCHAR
STARTCHAR char0A
ENCODING 10
SWIDTH 600 0
DWIDTH 6 0
BBX 6 8 0 0
BITMAP 
00
00
00
00
00
00
00
00
ENDCHAR
STARTCHAR char0B
ENCODING 11
SWIDTH 600 0
DWIDTH 6 0
BBX 6 8 0 0
BITMAP 
00
00
00
00
00
00
00
00
ENDCHAR
STARTCHAR char0C
ENCODING 12
SWIDTH 600 0
DWIDTH 6 0
BBX 6 8 0 0
BITMAP 
00
00
00
00
00
00
00
00
ENDCHAR
STARTCHAR char0D
ENCODING 13
SWIDTH 600 0
DWIDTH 6 0
BBX 6 8 0 0
BITMAP 
00
00
00
00
00
00
00
00
ENDCHAR
STARTCHAR char0E
ENCODING 14
SWIDTH 600 0
DWIDTH 6 0
BBX 6 8 0 0
BITMAP 
00
00
00
00
00
00
00
00
ENDCHAR
STARTCHAR char0F
ENCODING 15
SWIDTH 600 0
DWIDTH 6 0
BBX 6 8 0 0
BITMAP 
00
00
00
00
00
00
00
00
ENDCHAR
STARTCHAR char10
ENCODING 16
SWIDTH 600 0
DWIDTH 6 0
BBX 6 8 0 0
BITMAP 
00
00
00
00
00
00
00
00
ENDCHAR
STARTCHAR char11
ENCODING 17
SWIDTH 600 0
DWIDTH 6 0
BBX 6 8 0 0
BITMAP 
00
00
00
00
00
00
00
00
ENDCHAR
STARTCHAR char12
ENCODING 18
SWIDTH 600 0
DWIDTH 6 0
BBX 6 8 0 0
BITMAP 
00
00
00
00
00
00
00
00
ENDCHAR
STARTCHAR char13
ENCODING 19
SWIDTH 600 0
DWIDTH 6 0
BBX 6 8 0 0
BITMAP 
00
00
00
00
00
00
00
00
ENDCHAR
STARTCHAR char14
ENCODING 20
SWIDTH 600 0
DWIDTH 6 0
BBX 6 8 0 0
BITMAP 
00
3C
68
68
28
28
28
00
ENDCHAR
STARTCHAR char15
ENCODING 21
SWIDTH 600 0
DWIDTH 6 0
BBX 6 8 0 0
BITMAP 
00
00
00
00
00
00
00
00
ENDCHAR
STARTCHAR char16
ENCODING 22
SWIDTH 600 0
DWIDTH 6 0
BBX 6 8 0 0
BITMAP 
00
00
00
00
00
00
00
00
ENDCHAR
STARTCHAR char17
ENCODING 23
SWIDTH 600 0
DWIDTH 6 0
BBX 6 8 0 0
BITMAP 
00
00
00
00
00
00
00
00
ENDCHAR
STARTCHAR char18
ENCODING 24
SWIDTH 600 0
DWIDTH 6 0
BBX 6 8 0 0
BITMAP 
00
00
00
00
00
00
00
00
ENDCHAR
STARTCHAR char19
ENCODING 25
SWIDTH 600 0
DWIDTH 6 0
BBX 6 8 0 0
BITMAP 
00
00
00
00
00
00
00
00
ENDCHAR
STARTCHAR char1A
ENCODING 26
SWIDTH 600 0
DWIDTH 6 0
BBX 6 8 0 0
BITMAP 
00
00
00
00
00
00
00
00
ENDCHAR
STARTCHAR char1B
ENCODING 27
SWIDTH 600 0
DWIDTH 6 0
BBX 6 8 0 0
BITMAP 
00
00
00
00
00
00
00
00
ENDCHAR
STARTCHAR char1C
ENCODING 28
SWIDTH 600 0
DWIDTH 6 0
BBX 6 8 0 0
BITMAP 
00
00
00
00
00
00
00
00
ENDCHAR
STARTCHAR char1D
ENCODING 29
SWIDTH 600 0
DWIDTH 6 0
BBX 6 8 0 0
BITMAP 
00
00
00
00
00
00
00
00
ENDCHAR
STARTCHAR char1E
ENCODING 30
SWIDTH 600 0
DWIDTH 6 0
BBX 6 8 0 0
BITMAP 
00
00
00
00
00
00
00
00
ENDCHAR
STARTCHAR char1F
ENCODING 31
SWIDTH 600 0
DWIDTH 6 0
BBX 6 8 0 0
BITMAP 
00
00
00
00
00
00
00
00
ENDCHAR
STARTCHAR space
ENCODING 32
SWIDTH 600 0
DWIDTH 6 0
BBX 6 8 0 0
BITMAP 
00
00
00
00
00
00
00
00
ENDCHAR
STARTCHAR exclam
ENCODING 33
SWIDTH 600 0
DWIDTH 6 0
BBX 6 8 0 0
BITMAP 
00
10
10
10
10
00
10
00
ENDCHAR
STARTCHAR quotedbl
ENCODING 34
SWIDTH 600 0
DWIDTH 6 0
BBX 6 8 0 0
BITMAP 
00
28
28
00
00
00
00
00
ENDCHAR
STARTCHAR numbersign
ENCODING 35
SWIDTH 600 0
DWIDTH 6 0
BBX 6 8 0 0
BITMAP 
00
28
7C
28
28
7C
28
00
ENDCHAR
STARTCHAR dollar
ENCODING 36
SWIDTH 600 0
DWIDTH 6 0
BBX 6 8 0 0
BITMAP 
10
3C
50
38
14
78
10
00
ENDCHAR
STARTCHAR percent
ENCODING 37
SWIDTH 600 0
DWIDTH 6 0
BBX 6 8 0 0
BITMAP 
20
54
28
10
28
54
08
00
ENDCHAR
STARTCHAR ampersand
ENCODING 38
SWIDTH 600 0
DWIDTH 6 0
BBX 6 8 0 0
BITMAP 
00
20
50
20
54
48
34
00
ENDCHAR
STARTCHAR quotesingle
ENCODING 39
SWIDTH 600 0
DWIDTH 6 0
BBX 6 8 0 0
BITMAP 
00
10
10
00
00
00
00
00
ENDCHAR
STARTCHAR parenleft
ENCODING 40
SWIDTH 600 0
DWIDTH 6 0
BBX 6 8 0 0
BITMAP 
08
10
20
20
20
10
08
00
ENDCHAR
STARTCHAR parenright
ENCODING 41
SWIDTH 600 0
DWIDTH 6 0
BBX 6 8 0 0
BITMAP 
20
10
08
08
08
10
20
00
ENDCHAR
STARTCHAR asterisk
ENCODING 42
SWIDTH 600 0
DWIDTH 6 0
BBX 6 8 0 0
BITMAP 
00
10
54
38
54
10
00
00
ENDCHAR
STARTCHAR plus
ENCODING 43
SWIDTH 600 0
DWIDTH 6 0
BBX 6 8 0 0
BITMAP 
00
10
10
7C
10
10
00
00
ENDCHAR
STARTCHAR comma
ENCODING 44
SWIDTH 600 0
DWIDTH 6 0
BBX 6 8 0 0
BITMAP 
00
00
00
00
00
18
18
30
ENDCHAR
STARTCHAR hyphen
ENCODING 45
SWIDTH 600 0
DWIDTH 6 0
BBX 6 8 0 0
BITMAP 
00
00
00
38
00
00
00
00
ENDCHAR
STARTCHAR period
ENCODING 46
SWIDTH 600 0
DWIDTH 6 0
BBX 6 8 0 0
BITMAP 
00
00
00
00
00
30
30
00
ENDCHAR
STARTCHAR slash
ENCODING 47
SWIDTH 600 0
DWIDTH 6 0
BBX 6 8 0 0
BITMAP 
00
04
08
10
20
40
00
00
ENDCHAR
STARTCHAR zero
ENCODING 48
SWIDTH 600 0
DWIDTH 6 0
BBX 6 8 0 0
BITMAP 
00
38
44
54
54
44
38
00
ENDCHAR
STARTCHAR one
ENCODING 49
SWIDTH 600 0
DWIDTH 6 0
BBX 6 8 0 0
BITMAP 
00
10
30
10
10
10
38
00
ENDCHAR
STARTCHAR two
ENCODING 50
SWIDTH 600 0
DWIDTH 6 0
BBX 6 8 0 0
BITMAP 
00
38
44
08
10
20
7C
00
ENDCHAR
STARTCHAR three
ENCODING 51
SWIDTH 600 0
DWIDTH 6 0
BBX 6 8 0 0
BITMAP 
00
38
44
18
04
44
38
00
ENDCHAR
STARTCHAR four
ENCODING 52
SWIDTH 600 0
DWIDTH 6 0
BBX 6 8 0 0
BITMAP 
00
18
28
48
7C
08
08
00
ENDCHAR
STARTCHAR five
ENCODING 53
SWIDTH 600 0
DWIDTH 6 0
BBX 6 8 0 0
BITMAP 
00
7C
40
78
04
44
38
00
ENDCHAR
STARTCHAR six
ENCODING 54
SWIDTH 600 0
DWIDTH 6 0
BBX 6 8 0 0
BITMAP 
00
38
40
78
44
44
38
00
ENDCHAR
STARTCHAR seven
ENCODING 55
SWIDTH 600 0
DWIDTH 6 0
BBX 6 8 0 0
BITMAP 
00
7C
04
08
10
10
10
00
ENDCHAR
STARTCHAR eight
ENCODING 56
SWIDTH 600 0
DWIDTH 6 0
BBX 6 8 0 0
BITMAP 
00
38
44
38
44
44
38
00
ENDCHAR
STARTCHAR nine
ENCODING 57
SWIDTH 600 0
DWIDTH 6 0
BBX 6 8 0 0
BITMAP 
00
38
44
44
3C
04
38
00
ENDCHAR
STARTCHAR colon
ENCODING 58
SWIDTH 600 0
DWIDTH 6 0
BBX 6 8 0 0
BITMAP 
00
30
30
00
00
30
30
00
ENDCHAR
STARTCHAR semicolon
ENCODING 59
SWIDTH 600 0
DWIDTH 6 0
BBX 6 8 0 0
BITMAP 
00
18
18
00
00
18
18
30
ENDCHAR
STARTCHAR less
ENCODING 60
SWIDTH 600 0
DWIDTH 6 0
BBX 6 8 0 0
BITMAP 
04
08
10
20
10
08
04
00
ENDCHAR
STARTCHAR equal
ENCODING 61
SWIDTH 600 0
DWIDTH 6 0
BBX 6 8 0 0
BITMAP 
00
00
7C
00
7C
00
00
00
ENDCHAR
STARTCHAR greater
ENCODING 62
SWIDTH 600 0
DWIDTH 6 0
BBX 6 8 0 0
BITMAP 
40
20
10
08
10
20
40
00
ENDCHAR
STARTCHAR question
ENCODING 63
SWIDTH 600 0
DWIDTH 6 0
BBX 6 8 0 0
BITMAP 
00
38
44
08
10
00
10
00
ENDCHAR
STARTCHAR at
ENCODING 64
SWIDTH 600 0
DWIDTH 6 0
BBX 6 8 0 0
BITMAP 
38
44
4C
54
5C
40
3C
00
ENDCHAR
STARTCHAR A
ENCODING 65
SWIDTH 600 0
DWIDTH 6 0
BBX 6 8 0 0
BITMAP 
00
10
28
44
7C
44
44
00
ENDCHAR
STARTCHAR B
ENCODING 66
SWIDTH 600 0
DWIDTH 6 0
BBX 6 8 0 0
BITMAP 
00
78
44
78
44
44
78
00
ENDCHAR
STARTCHAR C
ENCODING 67
SWIDTH 600 0
DWIDTH 6 0
BBX 6 8 0 0
BITMAP 
00
38
44
40
40
44
38
00
ENDCHAR
STARTCHAR D
ENCODING 68
SWIDTH 600 0
DWIDTH 6 0
BBX 6 8 0 0
BITMAP 
00
70
48
44
44
48
70
00
ENDCHAR
STARTCHAR E
ENCODING 69
SWIDTH 600 0
DWIDTH 6 0
BBX 6 8 0 0
BITMAP 
00
7C
40
78
40
40
7C
00
ENDCHAR
STARTCHAR F
ENCODING 70
SWIDTH 600 0
DWIDTH 6 0
BBX 6 8 0 0
BITMAP 
00
7C
40
78
40
40
40
00
ENDCHAR
STARTCHAR G
ENCODING 71
SWIDTH 600 0
DWIDTH 6 0
BBX 6 8 0 0
BITMAP 
00
38
44
40
4C
44
3C
00
ENDCHAR
STARTCHAR H
ENCODING 72
SWIDTH 600 0
DWIDTH 6 0
BBX 6 8 0 0
BITMAP 
00
44
44
7C
44
44
44
00
ENDCHAR
STARTCHAR I
ENCODING 73
SWIDTH 600 0
DWIDTH 6 0
BBX 6 8 0 0
BITMAP 
00
38
10
10
10
10
38
00
ENDCHAR
STARTCHAR J
ENCODING 74
SWIDTH 600 0
DWIDTH 6 0
BBX 6 8 0 0
BITMAP 
00
1C
08
08
08
48
30
00
ENDCHAR
STARTCHAR K
ENCODING 75
SWIDTH 600 0
DWIDTH 6 0
BBX 6 8 0 0
BITMAP 
00
44
48
50
70
48
44
00
ENDCHAR
STARTCHAR L
ENCODING 76
SWIDTH 600 0
DWIDTH 6 0
BBX 6 8 0 0
BITMAP 
00
40
40
40
40
40
7C
00
ENDCHAR
STARTCHAR M
ENCODING 77
SWIDTH 600 0
DWIDTH 6 0
BBX 6 8 0 0
BITMAP 
00
44
6C
54
54
44
44
00
ENDCHAR
STARTCHAR N
ENCODING 78
SWIDTH 600 0
DWIDTH 6 0
BBX 6 8 0 0
BITMAP 
00
44
64
54
4C
44
44
00
ENDCHAR
STARTCHAR O
ENCODING 79
SWIDTH 600 0
DWIDTH 6 0
BBX 6 8 0 0
BITMAP 
00
38
44
44
44
44
38
00
ENDCHAR
STARTCHAR P
ENCODING 80
SWIDTH 600 0
DWIDTH 6 0
BBX 6 8 0 0
BITMAP 
00
78
44
44
78
40
40
00
ENDCHAR
STARTCHAR Q
ENCODING 81
SWIDTH 600 0
DWIDTH 6 0
BBX 6 8 0 0
BITMAP 
00
38
44
44
44
54
38
04
ENDCHAR
STARTCHAR R
ENCODING 82
SWIDTH 600 0
DWIDTH 6 0
BBX 6 8 0 0
BITMAP 
00
78
44
44
78
48
44
00
ENDCHAR
STARTCHAR S
ENCODING 83
SWIDTH 600 0
DWIDTH 6 0
BBX 6 8 0 0
BITMAP 
00
38
44
30
08
44
38
00
ENDCHAR
STARTCHAR T
ENCODING 84
SWIDTH 600 0
DWIDTH 6 0
BBX 6 8 0 0
BITMAP 
00
7C
10
10
10
10
10
00
ENDCHAR
STARTCHAR U
ENCODING 85
SWIDTH 600 0
DWIDTH 6 0
BBX 6 8 0 0
BITMAP 
00
44
44
44
44
44
38
00
ENDCHAR
STARTCHAR V
ENCODING 86
SWIDTH 600 0
DWIDTH 6 0
BBX 6 8 0 0
BITMAP 
00
44
44
44
28
28
10
00
ENDCHAR
STARTCHAR W
ENCODING 87
SWIDTH 600 0
DWIDTH 6 0
BBX 6 8 0 0
BITMAP 
00
44
44
44
54
54
28
00
ENDCHAR
STARTCHAR X
ENCODING 88
SWIDTH 600 0
DWIDTH 6 0
BBX 6 8 0 0
BITMAP 
00
44
28
10
10
28
44
00
ENDCHAR
STARTCHAR Y
ENCODING 89
SWIDTH 600 0
DWIDTH 6 0
BBX 6 8 0 0
BITMAP 
00
44
28
10
10
10
10
00
ENDCHAR
STARTCHAR Z
ENCODING 90
SWIDTH 600 0
DWIDTH 6 0
BBX 6 8 0 0
BITMAP 
00
7C
08
10
10
20
7C
00
ENDCHAR
STARTCHAR bracketleft
ENCODING 91
SWIDTH 600 0
DWIDTH 6 0
BBX 6 8 0 0
BITMAP 
38
20
20
20
20
20
38
00
ENDCHAR
STARTCHAR backslash
ENCODING 92
SWIDTH 600 0
DWIDTH 6 0
BBX 6 8 0 0
BITMAP 
00
40
20
10
08
04
00
00
ENDCHAR
STARTCHAR bracketright
ENCODING 93
SWIDTH 600 0
DWIDTH 6 0
BBX 6 8 0 0
BITMAP 
38
08
08
08
08
08
38
00
ENDCHAR
STARTCHAR asciicircum
ENCODING 94
SWIDTH 600 0
DWIDTH 6 0
BBX 6 8 0 0
BITMAP 
00
10
28
44
00
00
00
00
ENDCHAR
STARTCHAR underscore
ENCODING 95
SWIDTH 600 0
DWIDTH 6 0
BBX 6 8 0 0
BITMAP 
00
00
00
00
00
00
7C
00
ENDCHAR
STARTCHAR grave
ENCODING 96
SWIDTH 600 0
DWIDTH 6 0
BBX 6 8 0 0
BITMAP 
00
20
10
08
00
00
00
00
ENDCHAR
STARTCHAR a
ENCODING 97
SWIDTH 600 0
DWIDTH 6 0
BBX 6 8 0 0
BITMAP 
00
00
38
04
3C
44
3C
00
ENDCHAR
STARTCHAR b
ENCODING 98
SWIDTH 600 0
DWIDTH 6 0
BBX 6 8 0 0
BITMAP 
00
40
40
78
44
44
78
00
ENDCHAR
STARTCHAR c
ENCODING 99
SWIDTH 600 0
DWIDTH 6 0
BBX 6 8 0 0
BITMAP 
00
00
3C
40
40
40
3C
00
ENDCHAR
STARTCHAR d
ENCODING 100
SWIDTH 600 0
DWIDTH 6 0
BBX 6 8 0 0
BITMAP 
00
04
04
3C
44
44
3C
00
ENDCHAR
STARTCHAR e
ENCODING 101
SWIDTH 600 0
DWIDTH 6 0
BBX 6 8 0 0
BITMAP 
00
00
38
44
7C
40
3C
00
ENDCHAR
STARTCHAR f
ENCODING 102
SWIDTH 600 0
DWIDTH 6 0
BBX 6 8 0 0
BITMAP 
00
0C
10
38
10
10
10
00
ENDCHAR
STARTCHAR g
ENCODING 103
SWIDTH 600 0
DWIDTH 6 0
BBX 6 8 0 0
BITMAP 
00
00
38
44
4C
34
04
38
ENDCHAR
STARTCHAR h
ENCODING 104
SWIDTH 600 0
DWIDTH 6 0
BBX 6 8 0 0
BITMAP 
00
40
58
64
44
44
44
00
ENDCHAR
STARTCHAR i
ENCODING 105
SWIDTH 600 0
DWIDTH 6 0
BBX 6 8 0 0
BITMAP 
00
10
00
10
10
10
10
00
ENDCHAR
STARTCHAR j
ENCODING 106
SWIDTH 600 0
DWIDTH 6 0
BBX 6 8 0 0
BITMAP 
00
04
00
04
04
04
24
18
ENDCHAR
STARTCHAR k
ENCODING 107
SWIDTH 600 0
DWIDTH 6 0
BBX 6 8 0 0
BITMAP 
00
40
44
48
50
68
44
00
ENDCHAR
STARTCHAR l
ENCODING 108
SWIDTH 600 0
DWIDTH 6 0
BBX 6 8 0 0
BITMAP 
00
10
10
10
10
10
18
00
ENDCHAR
STARTCHAR m
ENCODING 109
SWIDTH 600 0
DWIDTH 6 0
BBX 6 8 0 0
BITMAP 
00
00
68
54
54
54
54
00
ENDCHAR
STARTCHAR n
ENCODING 110
SWIDTH 600 0
DWIDTH 6 0
BBX 6 8 0 0
BITMAP 
00
00
58
24
24
24
24
00
ENDCHAR
STARTCHAR o
ENCODING 111
SWIDTH 600 0
DWIDTH 6 0
BBX 6 8 0 0
BITMAP 
00
00
38
44
44
44
38
00
ENDCHAR
STARTCHAR p
ENCODING 112
SWIDTH 600 0
DWIDTH 6 0
BBX 6 8 0 0
BITMAP 
00
00
78
44
44
78
40
40
ENDCHAR
STARTCHAR q
ENCODING 113
SWIDTH 600 0
DWIDTH 6 0
BBX 6 8 0 0
BITMAP 
00
00
3C
44
44
3C
04
04
ENDCHAR
STARTCHAR r
ENCODING 114
SWIDTH 600 0
DWIDTH 6 0
BBX 6 8 0 0
BITMAP 
00
00
58
64
40
40
40
00
ENDCHAR
STARTCHAR s
ENCODING 115
SWIDTH 600 0
DWIDTH 6 0
BBX 6 8 0 0
BITMAP 
00
00
3C
40
38
04
78
00
ENDCHAR
STARTCHAR t
ENCODING 116
SWIDTH 600 0
DWIDTH 6 0
BBX 6 8 0 0
BITMAP 
00
10
7C
10
10
10
18
00
ENDCHAR
STARTCHAR u
ENCODING 117
SWIDTH 600 0
DWIDTH 6 0
BBX 6 8 0 0
BITMAP 
00
00
48
48
48
48
34
00
ENDCHAR
STARTCHAR v
ENCODING 118
SWIDTH 600 0
DWIDTH 6 0
BBX 6 8 0 0
BITMAP 
00
00
44
44
28
28
10
00
ENDCHAR
STARTCHAR w
ENCODING 119
SWIDTH 600 0
DWIDTH 6 0
BBX 6 8 0 0
BITMAP 
00
00
44
54
54
54
28
00
ENDCHAR
STARTCHAR x
ENCODING 120
SWIDTH 600 0
DWIDTH 6 0
BBX 6 8 0 0
BITMAP 
00
00
44
28
10
28
44
00
ENDCHAR
STARTCHAR y
ENCODING 121
SWIDTH 600 0
DWIDTH 6 0
BBX 6 8 0 0
BITMAP 
00
00
44
44
4C
34
04
38
ENDCHAR
STARTCHAR z
ENCODING 122
SWIDTH 600 0
DWIDTH 6 0
BBX 6 8 0 0
BITMAP 
00
00
7C
08
10
20
7C
00
ENDCHAR
STARTCHAR braceleft
ENCODING 123
SWIDTH 600 0
DWIDTH 6 0
BBX 6 8 0 0
BITMAP 
08
10
10
20
10
10
08
00
ENDCHAR
STARTCHAR bar
ENCODING 124
SWIDTH 600 0
DWIDTH 6 0
BBX 6 8 0 0
BITMAP 
10
10
10
10
10
10
10
10
ENDCHAR
STARTCHAR braceright
ENCODING 125
SWIDTH 600 0
DWIDTH 6 0
BBX 6 8 0 0
BITMAP 
20
10
10
08
10
10
20
00
ENDCHAR
STARTCHAR asciitilde
ENCODING 126
SWIDTH 600 0
DWIDTH 6 0
BBX 6 8 0 0
BITMAP 
00
34
48
00
00
00
00
00
ENDCHAR
STARTCHAR char7F
ENCODING 127
SWIDTH 600 0
DWIDTH 6 0
BBX 6 8 0 0
BITMAP 
00
00
00
00
00
00
00
00
ENDCHAR
STARTCHAR Ccedilla
ENCODING 128
SWIDTH 600 0
DWIDTH 6 0
BBX 6 8 0 0
BITMAP 
00
38
44
40
40
44
38
10
ENDCHAR
STARTCHAR udieresis
ENCODING 129
SWIDTH 600 0
DWIDTH 6 0
BBX 6 8 0 0
BITMAP 
00
48
00
48
48
48
34
00
ENDCHAR
STARTCHAR eacute
ENCODING 130
SWIDTH 600 0
DWIDTH 6 0
BBX 6 8 0 0
BITMAP 
08
10
38
44
7C
40
3C
00
ENDCHAR
STARTCHAR acircumflex
ENCODING 131
SWIDTH 600 0
DWIDTH 6 0
BBX 6 8 0 0
BITMAP 
08
14
38
04
3C
44
3C
00
ENDCHAR
STARTCHAR adieresis
ENCODING 132
SWIDTH 600 0
DWIDTH 6 0
BBX 6 8 0 0
BITMAP 
44
00
38
04
3C
44
3C
00
ENDCHAR
STARTCHAR agrave
ENCODING 133
SWIDTH 600 0
DWIDTH 6 0
BBX 6 8 0 0
BITMAP 
10
08
38
04
3C
44
3C
00
ENDCHAR
STARTCHAR aring
ENCODING 134
SWIDTH 600 0
DWIDTH 6 0
BBX 6 8 0 0
BITMAP 
10
28
38
04
3C
44
3C
00
ENDCHAR
STARTCHAR ccedilla
ENCODING 135
SWIDTH 600 0
DWIDTH 6 0
BBX 6 8 0 0
BITMAP 
00
00
3C
40
40
40
3C
10
ENDCHAR
STARTCHAR ecircumflex
ENCODING 136
SWIDTH 600 0
DWIDTH 6 0
BBX 6 8 0 0
BITMAP 
10
28
38
44
7C
40
3C
00
ENDCHAR
STARTCHAR edieresis
ENCODING 137
SWIDTH 600 0
DWIDTH 6 0
BBX 6 8 0 0
BITMAP 
44
00
38
44
7C
40
3C
00
ENDCHAR
STARTCHAR egrave
ENCODING 138
SWIDTH 600 0
DWIDTH 6 0
BBX 6 8 0 0
BITMAP 
20
10
38
44
7C
40
3C
00
ENDCHAR
STARTCHAR idieresis
ENCODING 139
SWIDTH 600 0
DWIDTH 6 0
BBX 6 8 0 0
BITMAP 
44
00
30
10
10
10
38
00
ENDCHAR
STARTCHAR icircumflex
ENCODING 140
SWIDTH 600 0
DWIDTH 6 0
BBX 6 8 0 0
BITMAP 
10
28
00
30
10
10
38
00
ENDCHAR
STARTCHAR igrave
ENCODING 141
SWIDTH 600 0
DWIDTH 6 0
BBX 6 8 0 0
BITMAP 
10
08
00
30
10
10
38
00
ENDCHAR
STARTCHAR Adieresis
ENCODING 142
SWIDTH 600 0
DWIDTH 6 0
BBX 6 8 0 0
BITMAP 
44
10
28
44
7C
44
44
00
ENDCHAR
STARTCHAR Aring
ENCODING 143
SWIDTH 600 0
DWIDTH 6 0
BBX 6 8 0 0
BITMAP 
10
28
10
28
44
7C
44
00
ENDCHAR
STARTCHAR Eacute
ENCODING 144
SWIDTH 600 0
DWIDTH 6 0
BBX 6 8 0 0
BITMAP 
08
10
7C
40
78
40
7C
00
ENDCHAR
STARTCHAR ae
ENCODING 145
SWIDTH 600 0
DWIDTH 6 0
BBX 6 8 0 0
BITMAP 
00
00
68
14
3C
50
2C
00
ENDCHAR
STARTCHAR AE
ENCODING 146
SWIDTH 600 0
DWIDTH 6 0
BBX 6 8 0 0
BITMAP 
00
1C
28
4C
78
48
4C
00
ENDCHAR
STARTCHAR ocircumflex
ENCODING 147
SWIDTH 600 0
DWIDTH 6 0
BBX 6 8 0 0
BITMAP 
10
28
00
38
44
44
38
00
ENDCHAR
STARTCHAR odieresis
ENCODING 148
SWIDTH 600 0
DWIDTH 6 0
BBX 6 8 0 0
BITMAP 
00
44
00
38
44
44
38
00
ENDCHAR
STARTCHAR ograve
ENCODING 149
SWIDTH 600 0
DWIDTH 6 0
BBX 6 8 0 0
BITMAP 
20
10
00
38
44
44
38
00
ENDCHAR
STARTCHAR ucircumflex
ENCODING 150
SWIDTH 600 0
DWIDTH 6 0
BBX 6 8 0 0
BITMAP 
30
48
00
48
48
48
34
00
ENDCHAR
STARTCHAR ugrave
ENCODING 151
SWIDTH 600 0
DWIDTH 6 0
BBX 6 8 0 0
BITMAP 
20
10
48
48
48
48
34
00
ENDCHAR
STARTCHAR ydieresis
ENCODING 152
SWIDTH 600 0
DWIDTH 6 0
BBX 6 8 0 0
BITMAP 
44
00
44
44
4C
34
04
38
ENDCHAR
STARTCHAR Odieresis
ENCODING 153
SWIDTH 600 0
DWIDTH 6 0
BBX 6 8 0 0
BITMAP 
44
00
38
44
44
44
38
00
ENDCHAR
STARTCHAR Udieresis
ENCODING 154
SWIDTH 600 0
DWIDTH 6 0
BBX 6 8 0 0
BITMAP 
44
00
44
44
44
44
38
00
ENDCHAR
STARTCHAR oslash
ENCODING 155
SWIDTH 600 0
DWIDTH 6 0
BBX 6 8 0 0
BITMAP 
00
00
3C
4C
54
64
78
00
ENDCHAR
STARTCHAR sterling
ENCODING 156
SWIDTH 600 0
DWIDTH 6 0
BBX 6 8 0 0
BITMAP 
18
24
20
78
20
64
58
00
ENDCHAR
STARTCHAR Oslash
ENCODING 157
SWIDTH 600 0
DWIDTH 6 0
BBX 6 8 0 0
BITMAP 
00
38
4C
54
54
64
38
00
ENDCHAR
STARTCHAR multiply
ENCODING 158
SWIDTH 600 0
DWIDTH 6 0
BBX 6 8 0 0
BITMAP 
00
44
28
10
28
44
00
00
ENDCHAR
STARTCHAR char9F
ENCODING 159
SWIDTH 600 0
DWIDTH 6 0
BBX 6 8 0 0
BITMAP 
00
00
00
00
00
00
00
00
ENDCHAR
STARTCHAR aacute
ENCODING 160
SWIDTH 600 0
DWIDTH 6 0
BBX 6 8 0 0
BITMAP 
08
10
38
04
3C
44
3C
00
ENDCHAR
STARTCHAR iacute
ENCODING 161
SWIDTH 600 0
DWIDTH 6 0
BBX 6 8 0 0
BITMAP 
10
20
00
30
10
10
38
00
ENDCHAR
STARTCHAR oacute
ENCODING 162
SWIDTH 600 0
DWIDTH 6 0
BBX 6 8 0 0
BITMAP 
08
10
00
38
44
44
38
00
ENDCHAR
STARTCHAR uacute
ENCODING 163
SWIDTH 600 0
DWIDTH 6 0
BBX 6 8 0 0
BITMAP 
10
20
48
48
48
48
34
00
ENDCHAR
STARTCHAR ntilde
ENCODING 164
SWIDTH 600 0
DWIDTH 6 0
BBX 6 8 0 0
BITMAP 
34
48
00
58
24
24
24
00
ENDCHAR
STARTCHAR Ntilde
ENCODING 165
SWIDTH 600 0
DWIDTH 6 0
BBX 6 8 0 0
BITMAP 
34
48
00
64
54
4C
44
00
ENDCHAR
STARTCHAR ordfeminine
ENCODING 166
SWIDTH 600 0
DWIDTH 6 0
BBX 6 8 0 0
BITMAP 
38
04
3C
44
3C
00
7C
00
ENDCHAR
STARTCHAR ordmasculine
ENCODING 167
SWIDTH 600 0
DWIDTH 6 0
BBX 6 8 0 0
BITMAP 
38
44
44
38
00
7C
00
00
ENDCHAR
STARTCHAR questiondown
ENCODING 168
SWIDTH 600 0
DWIDTH 6 0
BBX 6 8 0 0
BITMAP 
00
10
00
10
20
44
38
00
ENDCHAR
STARTCHAR registered
ENCODING 169
SWIDTH 600 0
DWIDTH 6 0
BBX 6 8 0 0
BITMAP 
78
84
B4
AC
B4
AC
84
78
ENDCHAR
STARTCHAR logicalnot
ENCODING 170
SWIDTH 600 0
DWIDTH 6 0
BBX 6 8 0 0
BITMAP 
00
7C
04
00
00
00
00
00
ENDCHAR
STARTCHAR onehalf
ENCODING 171
SWIDTH 600 0
DWIDTH 6 0
BBX 6 8 0 0
BITMAP 
40
44
48
50
28
54
08
1C
ENDCHAR
STARTCHAR onequarter
ENCODING 172
SWIDTH 600 0
DWIDTH 6 0
BBX 6 8 0 0
BITMAP 
40
44
48
54
2C
54
1C
04
ENDCHAR
STARTCHAR exclamdown
ENCODING 173
SWIDTH 600 0
DWIDTH 6 0
BBX 6 8 0 0
BITMAP 
00
10
00
10
10
10
10
00
ENDCHAR
STARTCHAR guillemotleft
ENCODING 174
SWIDTH 600 0
DWIDTH 6 0
BBX 6 8 0 0
BITMAP 
00
14
28
50
28
14
00
00
ENDCHAR
STARTCHAR guillemotright
ENCODING 175
SWIDTH 600 0
DWIDTH 6 0
BBX 6 8 0 0
BITMAP 
00
50
28
14
28
50
00
00
ENDCHAR
STARTCHAR charB0
ENCODING 176
SWIDTH 600 0
DWIDTH 6 0
BBX 6 8 0 0
BITMAP 
00
00
00
00
00
00
00
00
ENDCHAR
STARTCHAR charB1
ENCODING 177
SWIDTH 600 0
DWIDTH 6 0
BBX 6 8 0 0
BITMAP 
00
00
00
00
00
00
00
00
ENDCHAR
STARTCHAR charB2
ENCODING 178
SWIDTH 600 0
DWIDTH 6 0
BBX 6 8 0 0
BITMAP 
00
00
00
00
00
00
00
00
ENDCHAR
STARTCHAR charB3
ENCODING 179
SWIDTH 600 0
DWIDTH 6 0
BBX 6 8 0 0
BITMAP 
00
00
00
00
00
00
00
00
ENDCHAR
STARTCHAR charB4
ENCODING 180
SWIDTH 600 0
DWIDTH 6 0
BBX 6 8 0 0
BITMAP 
00
00
00
00
00
00
00
00
ENDCHAR
STARTCHAR Aacute
ENCODING 181
SWIDTH 600 0
DWIDTH 6 0
BBX 6 8 0 0
BITMAP 
10
20
10
28
44
7C
44
00
ENDCHAR
STARTCHAR Acircumflex
ENCODING 182
SWIDTH 600 0
DWIDTH 6 0
BBX 6 8 0 0
BITMAP 
10
28
00
38
44
7C
44
00
ENDCHAR
STARTCHAR Agrave
ENCODING 183
SWIDTH 600 0
DWIDTH 6 0
BBX 6 8 0 0
BITMAP 
10
08
10
28
44
7C
44
00
ENDCHAR
STARTCHAR copyright
ENCODING 184
SWIDTH 600 0
DWIDTH 6 0
BBX 6 8 0 0
BITMAP 
78
84
B4
C4
C4
B4
84
78
ENDCHAR
STARTCHAR charB9
ENCODING 185
SWIDTH 600 0
DWIDTH 6 0
BBX 6 8 0 0
BITMAP 
00
00
00
00
00
00
00
00
ENDCHAR
STARTCHAR charBA
ENCODING 186
SWIDTH 600 0
DWIDTH 6 0
BBX 6 8 0 0
BITMAP 
00
00
00
00
00
00
00
00
ENDCHAR
STARTCHAR charBB
ENCODING 187
SWIDTH 600 0
DWIDTH 6 0
BBX 6 8 0 0
BITMAP 
00
00
00
00
00
00
00
00
ENDCHAR
STARTCHAR charBC
ENCODING 188
SWIDTH 600 0
DWIDTH 6 0
BBX 6 8 0 0
BITMAP 
00
00
00
00
00
00
00
00
ENDCHAR
STARTCHAR cent
ENCODING 189
SWIDTH 600 0
DWIDTH 6 0
BBX 6 8 0 0
BITMAP 
00
10
3C
50
50
3C
10
00
ENDCHAR
STARTCHAR yen
ENCODING 190
SWIDTH 600 0
DWIDTH 6 0
BBX 6 8 0 0
BITMAP 
00
44
28
7C
10
7C
10
00
ENDCHAR
STARTCHAR charBF
ENCODING 191
SWIDTH 600 0
DWIDTH 6 0
BBX 6 8 0 0
BITMAP 
00
00
00
00
00
00
00
00
ENDCHAR
STARTCHAR charC0
ENCODING 192
SWIDTH 600 0
DWIDTH 6 0
BBX 6 8 0 0
BITMAP 
00
00
00
00
00
00
00
00
ENDCHAR
STARTCHAR charC1
ENCODING 193
SWIDTH 600 0
DWIDTH 6 0
BBX 6 8 0 0
BITMAP 
00
00
00
00
00
00
00
00
ENDCHAR
STARTCHAR charC2
ENCODING 194
SWIDTH 600 0
DWIDTH 6 0
BBX 6 8 0 0
BITMAP 
00
00
00
00
00
00
00
00
ENDCHAR
STARTCHAR charC3
ENCODING 195
SWIDTH 600 0
DWIDTH 6 0
BBX 6 8 0 0
BITMAP 
00
00
00
00
00
00
00
00
ENDCHAR
STARTCHAR charC4
ENCODING 196
SWIDTH 600 0
DWIDTH 6 0
BBX 6 8 0 0
BITMAP 
00
00
00
00
00
00
00
00
ENDCHAR
STARTCHAR charC5
ENCODING 197
SWIDTH 600 0
DWIDTH 6 0
BBX 6 8 0 0
BITMAP 
00
00
00
00
00
00
00
00
ENDCHAR
STARTCHAR atilde
ENCODING 198
SWIDTH 600 0
DWIDTH 6 0
BBX 6 8 0 0
BITMAP 
34
48
38
04
3C
44
3C
00
ENDCHAR
STARTCHAR Atilde
ENCODING 199
SWIDTH 600 0
DWIDTH 6 0
BBX 6 8 0 0
BITMAP 
34
48
10
28
44
7C
44
00
ENDCHAR
STARTCHAR charC8
ENCODING 200
SWIDTH 600 0
DWIDTH 6 0
BBX 6 8 0 0
BITMAP 
00
00
00
00
00
00
00
00
ENDCHAR
STARTCHAR charC9
ENCODING 201
SWIDTH 600 0
DWIDTH 6 0
BBX 6 8 0 0
BITMAP 
00
00
00
00
00
00
00
00
ENDCHAR
STARTCHAR charCA
ENCODING 202
SWIDTH 600 0
DWIDTH 6 0
BBX 6 8 0 0
BITMAP 
00
00
00
00
00
00
00
00
ENDCHAR
STARTCHAR charCB
ENCODING 203
SWIDTH 600 0
DWIDTH 6 0
BBX 6 8 0 0
BITMAP 
00
00
00
00
00
00
00
00
ENDCHAR
STARTCHAR charCC
ENCODING 204
SWIDTH 600 0
DWIDTH 6 0
BBX 6 8 0 0
BITMAP 
00
00
00
00
00
00
00
00
ENDCHAR
STARTCHAR charCD
ENCODING 205
SWIDTH 600 0
DWIDTH 6 0
BBX 6 8 0 0
BITMAP 
00
00
00
00
00
00
00
00
ENDCHAR
STARTCHAR charCE
ENCODING 206
SWIDTH 600 0
DWIDTH 6 0
BBX 6 8 0 0
BITMAP 
00
00
00
00
00
00
00
00
ENDCHAR
STARTCHAR currency
ENCODING 207
SWIDTH 600 0
DWIDTH 6 0
BBX 6 8 0 0
BITMAP 
00
44
38
44
44
38
44
00
ENDCHAR
STARTCHAR eth
ENCODING 208
SWIDTH 600 0
DWIDTH 6 0
BBX 6 8 0 0
BITMAP 
48
30
48
04
3C
44
38
00
ENDCHAR
STARTCHAR Eth
ENCODING 209
SWIDTH 600 0
DWIDTH 6 0
BBX 6 8 0 0
BITMAP 
00
78
44
74
44
44
78
00
ENDCHAR
STARTCHAR Ecircumflex
ENCODING 210
SWIDTH 600 0
DWIDTH 6 0
BBX 6 8 0 0
BITMAP 
10
28
7C
40
78
40
7C
00
ENDCHAR
STARTCHAR Edieresis
ENCODING 211
SWIDTH 600 0
DWIDTH 6 0
BBX 6 8 0 0
BITMAP 
44
00
7C
40
78
40
7C
00
ENDCHAR
STARTCHAR Egrave
ENCODING 212
SWIDTH 600 0
DWIDTH 6 0
BBX 6 8 0 0
BITMAP 
20
10
7C
40
78
40
7C
00
ENDCHAR
STARTCHAR Euro
ENCODING 213
SWIDTH 600 0
DWIDTH 6 0
BBX 6 8 0 0
BITMAP 
00
00
30
10
10
10
38
00
ENDCHAR
STARTCHAR Iacute
ENCODING 214
SWIDTH 600 0
DWIDTH 6 0
BBX 6 8 0 0
BITMAP 
10
20
38
10
10
10
38
00
ENDCHAR
STARTCHAR Icircumflex
ENCODING 215
SWIDTH 600 0
DWIDTH 6 0
BBX 6 8 0 0
BITMAP 
10
28
00
38
10
10
38
00
ENDCHAR
STARTCHAR Idieresis
ENCODING 216
SWIDTH 600 0
DWIDTH 6 0
BBX 6 8 0 0
BITMAP 
44
00
38
10
10
10
38
00
ENDCHAR
STARTCHAR charD9
ENCODING 217
SWIDTH 600 0
DWIDTH 6 0
BBX 6 8 0 0
BITMAP 
00
00
00
00
00
00
00
00
ENDCHAR
STARTCHAR charDA
ENCODING 218
SWIDTH 600 0
DWIDTH 6 0
BBX 6 8 0 0
BITMAP 
00
00
00
00
00
00
00
00
ENDCHAR
STARTCHAR charDB
ENCODING 219
SWIDTH 600 0
DWIDTH 6 0
BBX 6 8 0 0
BITMAP 
00
00
00
00
00
00
00
00
ENDCHAR
STARTCHAR charDC
ENCODING 220
SWIDTH 600 0
DWIDTH 6 0
BBX 6 8 0 0
BITMAP 
00
00
00
00
00
00
00
00
ENDCHAR
STARTCHAR brokenbar
ENCODING 221
SWIDTH 600 0
DWIDTH 6 0
BBX 6 8 0 0
BITMAP 
00
10
10
00
00
10
10
00
ENDCHAR
STARTCHAR Igrave
ENCODING 222
SWIDTH 600 0
DWIDTH 6 0
BBX 6 8 0 0
BITMAP 
10
08
38
10
10
10
38
00
ENDCHAR
STARTCHAR charDF
ENCODING 223
SWIDTH 600 0
DWIDTH 6 0
BBX 6 8 0 0
BITMAP 
00
00
00
00
00
00
00
00
ENDCHAR
STARTCHAR Oacute
ENCODING 224
SWIDTH 600 0
DWIDTH 6 0
BBX 6 8 0 0
BITMAP 
08
10
38
44
44
44
38
00
ENDCHAR
STARTCHAR germandbls
ENCODING 225
SWIDTH 600 0
DWIDTH 6 0
BBX 6 8 0 0
BITMAP 
00
30
48
58
44
64
58
00
ENDCHAR
STARTCHAR Ocircumflex
ENCODING 226
SWIDTH 600 0
DWIDTH 6 0
BBX 6 8 0 0
BITMAP 
10
28
38
44
44
44
38
00
ENDCHAR
STARTCHAR Ograve
ENCODING 227
SWIDTH 600 0
DWIDTH 6 0
BBX 6 8 0 0
BITMAP 
20
10
38
44
44
44
38
00
ENDCHAR
STARTCHAR otilde
ENCODING 228
SWIDTH 600 0
DWIDTH 6 0
BBX 6 8 0 0
BITMAP 
34
48
00
38
44
44
38
00
ENDCHAR
STARTCHAR Otilde
ENCODING 229
SWIDTH 600 0
DWIDTH 6 0
BBX 6 8 0 0
BITMAP 
34
48
38
44
44
44
38
00
ENDCHAR
STARTCHAR mu
ENCODING 230
SWIDTH 600 0
DWIDTH 6 0
BBX 6 8 0 0
BITMAP 
00
00
48
48
48
68
54
40
ENDCHAR
STARTCHAR thorn
ENCODING 231
SWIDTH 600 0
DWIDTH 6 0
BBX 6 8 0 0
BITMAP 
40
40
78
44
44
78
40
40
ENDCHAR
STARTCHAR Thorn
ENCODING 232
SWIDTH 600 0
DWIDTH 6 0
BBX 6 8 0 0
BITMAP 
60
38
24
24
38
20
70
00
ENDCHAR
STARTCHAR Uacute
ENCODING 233
SWIDTH 600 0
DWIDTH 6 0
BBX 6 8 0 0
BITMAP 
08
10
44
44
44
44
38
00
ENDCHAR
STARTCHAR Ucircumflex
ENCODING 234
SWIDTH 600 0
DWIDTH 6 0
BBX 6 8 0 0
BITMAP 
10
28
00
44
44
44
38
00
ENDCHAR
STARTCHAR Ugrave
ENCODING 235
SWIDTH 600 0
DWIDTH 6 0
BBX 6 8 0 0
BITMAP 
20
10
44
44
44
44
38
00
ENDCHAR
STARTCHAR yacute
ENCODING 236
SWIDTH 600 0
DWIDTH 6 0
BBX 6 8 0 0
BITMAP 
08
10
44
44
4C
34
04
38
ENDCHAR
STARTCHAR Yacute
ENCODING 237
SWIDTH 600 0
DWIDTH 6 0
BBX 6 8 0 0
BITMAP 
08
10
44
28
10
10
10
00
ENDCHAR
STARTCHAR macron
ENCODING 238
SWIDTH 600 0
DWIDTH 6 0
BBX 6 8 0 0
BITMAP 
00
7C
00
00
00
00
00
00
ENDCHAR
STARTCHAR acute
ENCODING 239
SWIDTH 600 0
DWIDTH 6 0
BBX 6 8 0 0
BITMAP 
00
08
10
20
00
00
00
00
ENDCHAR
STARTCHAR uni00AD
ENCODING 240
SWIDTH 600 0
DWIDTH 6 0
BBX 6 8 0 0
BITMAP 
00
00
00
38
00
00
00
00
ENDCHAR
STARTCHAR plusminus
ENCODING 241
SWIDTH 600 0
DWIDTH 6 0
BBX 6 8 0 0
BITMAP 
00
10
10
7C
10
10
7C
00
ENDCHAR
STARTCHAR charF2
ENCODING 242
SWIDTH 600 0
DWIDTH 6 0
BBX 6 8 0 0
BITMAP 
00
00
00
00
00
00
00
00
ENDCHAR
STARTCHAR threequarters
ENCODING 243
SWIDTH 600 0
DWIDTH 6 0
BBX 6 8 0 0
BITMAP 
70
10
24
18
74
2C
54
1C
ENDCHAR
STARTCHAR paragraph
ENCODING 244
SWIDTH 600 0
DWIDTH 6 0
BBX 6 8 0 0
BITMAP 
00
3C
68
68
28
28
28
00
ENDCHAR
STARTCHAR section
ENCODING 245
SWIDTH 600 0
DWIDTH 6 0
BBX 6 8 0 0
BITMAP 
38
40
78
44
3C
04
38
00
ENDCHAR
STARTCHAR divide
ENCODING 246
SWIDTH 600 0
DWIDTH 6 0
BBX 6 8 0 0
BITMAP 
00
10
00
7C
00
10
00
00
ENDCHAR
STARTCHAR cedilla
ENCODING 247
SWIDTH 600 0
DWIDTH 6 0
BBX 6 8 0 0
BITMAP 
00
00
00
10
10
10
60
00
ENDCHAR
STARTCHAR degree
ENCODING 248
SWIDTH 600 0
DWIDTH 6 0
BBX 6 8 0 0
BITMAP 
00
38
44
38
00
00
00
00
ENDCHAR
STARTCHAR dieresis
ENCODING 249
SWIDTH 600 0
DWIDTH 6 0
BBX 6 8 0 0
BITMAP 
00
6C
6C
00
00
00
00
00
ENDCHAR
STARTCHAR periodcentered
ENCODING 250
SWIDTH 600 0
DWIDTH 6 0
BBX 6 8 0 0
BITMAP 
00
00
38
7C
38
00
00
00
ENDCHAR
STARTCHAR uni00B9
ENCODING 251
SWIDTH 600 0
DWIDTH 6 0
BBX 6 8 0 0
BITMAP 
10
30
10
10
10
00
00
00
ENDCHAR
STARTCHAR uni00B3
ENCODING 252
SWIDTH 600 0
DWIDTH 6 0
BBX 6 8 0 0
BITMAP 
3C
04
18
44
38
00
00
00
ENDCHAR
STARTCHAR uni00B2
ENCODING 253
SWIDTH 600 0
DWIDTH 6 0
BBX 6 8 0 0
BITMAP 
38
44
18
20
7C
00
00
00
ENDCHAR
STARTCHAR charFE
ENCODING 254
SWIDTH 600 0
DWIDTH 6 0
BBX 6 8 0 0
BITMAP 
00
00
00
00
00
00
00
00
ENDCHAR
STARTCHAR uni00A0
ENCODING 255
SWIDTH 600 0
DWIDTH 6 0
BBX 6 8 0 0
BITMAP 
00
00
00
00
00
00
00
00
ENDCHAR
STARTCHAR char100
ENCODING 256
SWIDTH 600 0
DWIDTH 6 0
BBX 6 8 0 0
BITMAP 
00
00
00
00
00
00
00
00
ENDCHAR
STARTCHAR char101
ENCODING 257
SWIDTH 600 0
DWIDTH 6 0
BBX 6 8 0 0
BITMAP 
00
00
00
00
00
00
00
00
ENDCHAR
STARTCHAR char102
ENCODING 258
SWIDTH 600 0
DWIDTH 6 0
BBX 6 8 0 0
BITMAP 
00
00
00
00
00
00
00
00
ENDCHAR
STARTCHAR char103
ENCODING 259
SWIDTH 600 0
DWIDTH 6 0
BBX 6 8 0 0
BITMAP 
00
00
00
00
00
00
00
00
ENDCHAR
STARTCHAR char104
ENCODING 260
SWIDTH 600 0
DWIDTH 6 0
BBX 6 8 0 0
BITMAP 
00
00
00
00
00
00
00
00
ENDCHAR
STARTCHAR char105
ENCODING 261
SWIDTH 600 0
DWIDTH 6 0
BBX 6 8 0 0
BITMAP 
00
00
00
00
00
00
00
00
ENDCHAR
STARTCHAR char106
ENCODING 262
SWIDTH 600 0
DWIDTH 6 0
BBX 6 8 0 0
BITMAP 
00
00
00
00
00
00
00
00
ENDCHAR
STARTCHAR char107
ENCODING 263
SWIDTH 600 0
DWIDTH 6 0
BBX 6 8 0 0
BITMAP 
00
00
00
00
00
00
00
00
ENDCHAR
STARTCHAR char108
ENCODING 264
SWIDTH 600 0
DWIDTH 6 0
BBX 6 8 0 0
BITMAP 
00
00
00
00
00
00
00
00
ENDCHAR
STARTCHAR char109
ENCODING 265
SWIDTH 600 0
DWIDTH 6 0
BBX 6 8 0 0
BITMAP 
00
00
00
00
00
00
00
00
ENDCHAR
STARTCHAR char10A
ENCODING 266
SWIDTH 600 0
DWIDTH 6 0
BBX 6 8 0 0
BITMAP 
00
00
00
00
00
00
00
00
ENDCHAR
STARTCHAR char10B
ENCODING 267
SWIDTH 600 0
DWIDTH 6 0
BBX 6 8 0 0
BITMAP 
00
00
00
00
00
00
00
00
ENDCHAR
STARTCHAR char10C
ENCODING 268
SWIDTH 600 0
DWIDTH 6 0
BBX 6 8 0 0
BITMAP 
00
00
00
00
00
00
00
00
ENDCHAR
STARTCHAR char10D
ENCODING 269
SWIDTH 600 0
DWIDTH 6 0
BBX 6 8 0 0
BITMAP 
00
00
00
00
00
00
00
00
ENDCHAR
STARTCHAR char10E
ENCODING 270
SWIDTH 600 0
DWIDTH 6 0
BBX 6 8 0 0
BITMAP 
00
00
00
00
00
00
00
00
ENDCHAR
STARTCHAR char10F
ENCODING 271
SWIDTH 600 0
DWIDTH 6 0
BBX 6 8 0 0
BITMAP 
00
00
00
00
00
00
00
00
ENDCHAR
STARTCHAR char110
ENCODING 272
SWIDTH 600 0
DWIDTH 6 0
BBX 6 8 0 0
BITMAP 
00
00
00
00
00
00
00
00
ENDCHAR
STARTCHAR char111
ENCODING 273
SWIDTH 600 0
DWIDTH 6 0
BBX 6 8 0 0
BITMAP 
00
00
00
00
00
00
00
00
ENDCHAR
STARTCHAR char112
ENCODING 274
SWIDTH 600 0
DWIDTH 6 0
BBX 6 8 0 0
BITMAP 
00
00
00
00
00
00
00
00
ENDCHAR
STARTCHAR char113
ENCODING 275
SWIDTH 600 0
DWIDTH 6 0
BBX 6 8 0 0
BITMAP 
00
00
00
00
00
00
00
00
ENDCHAR
STARTCHAR char114
ENCODING 276
SWIDTH 600 0
DWIDTH 6 0
BBX 6 8 0 0
BITMAP 
00
00
00
00
00
00
00
00
ENDCHAR
STARTCHAR char115
ENCODING 277
SWIDTH 600 0
DWIDTH 6 0
BBX 6 8 0 0
BITMAP 
00
00
00
00
00
00
00
00
ENDCHAR
STARTCHAR char116
ENCODING 278
SWIDTH 600 0
DWIDTH 6 0
BBX 6 8 0 0
BITMAP 
00
00
00
00
00
00
00
00
ENDCHAR
STARTCHAR char117
ENCODING 279
SWIDTH 600 0
DWIDTH 6 0
BBX 6 8 0 0
BITMAP 
00
00
00
00
00
00
00
00
ENDCHAR
STARTCHAR char118
ENCODING 280
SWIDTH 600 0
DWIDTH 6 0
BBX 6 8 0 0
BITMAP 
00
00
00
00
00
00
00
00
ENDCHAR
STARTCHAR char119
ENCODING 281
SWIDTH 600 0
DWIDTH 6 0
BBX 6 8 0 0
BITMAP 
00
00
00
00
00
00
00
00
ENDCHAR
STARTCHAR char11A
ENCODING 282
SWIDTH 600 0
DWIDTH 6 0
BBX 6 8 0 0
BITMAP 
00
00
00
00
00
00
00
00
ENDCHAR
STARTCHAR char11B
ENCODING 283
SWIDTH 600 0
DWIDTH 6 0
BBX 6 8 0 0
BITMAP 
00
00
00
00
00
00
00
00
ENDCHAR
STARTCHAR char11C
ENCODING 284
SWIDTH 600 0
DWIDTH 6 0
BBX 6 8 0 0
BITMAP 
00
00
00
00
00
00
00
00
ENDCHAR
STARTCHAR char11D
ENCODING 285
SWIDTH 600 0
DWIDTH 6 0
BBX 6 8 0 0
BITMAP 
00
00
00
00
00
00
00
00
ENDCHAR
STARTCHAR char11E
ENCODING 286
SWIDTH 600 0
DWIDTH 6 0
BBX 6 8 0 0
BITMAP 
00
00
00
00
00
00
00
00
ENDCHAR
STARTCHAR char11F
ENCODING 287
SWIDTH 600 0
DWIDTH 6 0
BBX 6 8 0 0
BITMAP 
00
00
00
00
00
00
00
00
ENDCHAR
STARTCHAR char120
ENCODING 288
SWIDTH 600 0
DWIDTH 6 0
BBX 6 8 0 0
BITMAP 
00
00
00
00
00
00
00
00
ENDCHAR
STARTCHAR char121
ENCODING 289
SWIDTH 600 0
DWIDTH 6 0
BBX 6 8 0 0
BITMAP 
00
00
00
00
00
00
00
00
ENDCHAR
STARTCHAR char122
ENCODING 290
SWIDTH 600 0
DWIDTH 6 0
BBX 6 8 0 0
BITMAP 
00
00
00
00
00
00
00
00
ENDCHAR
STARTCHAR char123
ENCODING 291
SWIDTH 600 0
DWIDTH 6 0
BBX 6 8 0 0
BITMAP 
00
00
00
00
00
00
00
00
ENDCHAR
STARTCHAR char124
ENCODING 292
SWIDTH 600 0
DWIDTH 6 0
BBX 6 8 0 0
BITMAP 
00
00
00
00
00
00
00
00
ENDCHAR
STARTCHAR char125
ENCODING 293
SWIDTH 600 0
DWIDTH 6 0
BBX 6 8 0 0
BITMAP 
00
00
00
00
00
00
00
00
ENDCHAR
STARTCHAR char126
ENCODING 294
SWIDTH 600 0
DWIDTH 6 0
BBX 6 8 0 0
BITMAP 
00
00
00
00
00
00
00
00
ENDCHAR
STARTCHAR char127
ENCODING 295
SWIDTH 600 0
DWIDTH 6 0
BBX 6 8 0 0
BITMAP 
00
00
00
00
00
00
00
00
ENDCHAR
STARTCHAR char128
ENCODING 296
SWIDTH 600 0
DWIDTH 6 0
BBX 6 8 0 0
BITMAP 
00
00
00
00
00
00
00
00
ENDCHAR
STARTCHAR char129
ENCODING 297
SWIDTH 600 0
DWIDTH 6 0
BBX 6 8 0 0
BITMAP 
00
00
00
00
00
00
00
00
ENDCHAR
STARTCHAR char12A
ENCODING 298
SWIDTH 600 0
DWIDTH 6 0
BBX 6 8 0 0
BITMAP 
00
00
00
00
00
00
00
00
ENDCHAR
STARTCHAR char12B
ENCODING 299
SWIDTH 600 0
DWIDTH 6 0
BBX 6 8 0 0
BITMAP 
00
00
00
00
00
00
00
00
ENDCHAR
STARTCHAR char12C
ENCODING 300
SWIDTH 600 0
DWIDTH 6 0
BBX 6 8 0 0
BITMAP 
00
00
00
00
00
00
00
00
ENDCHAR
STARTCHAR char12D
ENCODING 301
SWIDTH 600 0
DWIDTH 6 0
BBX 6 8 0 0
BITMAP 
00
00
00
00
00
00
00
00
ENDCHAR
STARTCHAR breve
ENCODING 302
SWIDTH 600 0
DWIDTH 6 0
BBX 6 8 0 0
BITMAP 
44
38
00
00
00
00
00
00
ENDCHAR
STARTCHAR dotaccent
ENCODING 303
SWIDTH 600 0
DWIDTH 6 0
BBX 6 8 0 0
BITMAP 
00
30
30
00
00
00
00
00
ENDCHAR
STARTCHAR char130
ENCODING 304
SWIDTH 600 0
DWIDTH 6 0
BBX 6 8 0 0
BITMAP 
00
00
00
00
00
00
00
00
ENDCHAR
STARTCHAR hungarumlaut
ENCODING 305
SWIDTH 600 0
DWIDTH 6 0
BBX 6 8 0 0
BITMAP 
00
28
50
00
00
00
00
00
ENDCHAR
STARTCHAR ogonek
ENCODING 306
SWIDTH 600 0
DWIDTH 6 0
BBX 6 8 0 0
BITMAP 
00
00
00
00
10
10
20
18
ENDCHAR
STARTCHAR caron
ENCODING 307
SWIDTH 600 0
DWIDTH 6 0
BBX 6 8 0 0
BITMAP 
44
28
10
00
00
00
00
00
ENDCHAR
STARTCHAR char134
ENCODING 308
SWIDTH 600 0
DWIDTH 6 0
BBX 6 8 0 0
BITMAP 
00
00
00
00
00
00
00
00
ENDCHAR
STARTCHAR char135
ENCODING 309
SWIDTH 600 0
DWIDTH 6 0
BBX 6 8 0 0
BITMAP 
00
00
00
00
00
00
00
00
ENDCHAR
STARTCHAR char136
ENCODING 310
SWIDTH 600 0
DWIDTH 6 0
BBX 6 8 0 0
BITMAP 
00
00
00
00
00
00
00
00
ENDCHAR
STARTCHAR char137
ENCODING 311
SWIDTH 600 0
DWIDTH 6 0
BBX 6 8 0 0
BITMAP 
00
00
00
00
00
00
00
00
ENDCHAR
STARTCHAR char138
ENCODING 312
SWIDTH 600 0
DWIDTH 6 0
BBX 6 8 0 0
BITMAP 
00
00
00
00
00
00
00
00
ENDCHAR
STARTCHAR char139
ENCODING 313
SWIDTH 600 0
DWIDTH 6 0
BBX 6 8 0 0
BITMAP 
00
00
00
00
00
00
00
00
ENDCHAR
STARTCHAR char13A
ENCODING 314
SWIDTH 600 0
DWIDTH 6 0
BBX 6 8 0 0
BITMAP 
00
00
00
00
00
00
00
00
ENDCHAR
STARTCHAR char13B
ENCODING 315
SWIDTH 600 0
DWIDTH 6 0
BBX 6 8 0 0
BITMAP 
00
00
00
00
00
00
00
00
ENDCHAR
STARTCHAR char13C
ENCODING 316
SWIDTH 600 0
DWIDTH 6 0
BBX 6 8 0 0
BITMAP 
00
00
00
00
00
00
00
00
ENDCHAR
STARTCHAR char13D
ENCODING 317
SWIDTH 600 0
DWIDTH 6 0
BBX 6 8 0 0
BITMAP 
00
00
00
00
00
00
00
00
ENDCHAR
STARTCHAR char13E
ENCODING 318
SWIDTH 600 0
DWIDTH 6 0
BBX 6 8 0 0
BITMAP 
00
00
00
00
00
00
00
00
ENDCHAR
STARTCHAR char13F
ENCODING 319
SWIDTH 600 0
DWIDTH 6 0
BBX 6 8 0 0
BITMAP 
00
00
00
00
00
00
00
00
ENDCHAR
STARTCHAR char140
ENCODING 320
SWIDTH 600 0
DWIDTH 6 0
BBX 6 8 0 0
BITMAP 
00
00
00
00
00
00
00
00
ENDCHAR
STARTCHAR char141
ENCODING 321
SWIDTH 600 0
DWIDTH 6 0
BBX 6 8 0 0
BITMAP 
00
00
00
00
00
00
00
00
ENDCHAR
STARTCHAR char142
ENCODING 322
SWIDTH 600 0
DWIDTH 6 0
BBX 6 8 0 0
BITMAP 
00
00
00
00
00
00
00
00
ENDCHAR
STARTCHAR Scaron
ENCODING 323
SWIDTH 600 0
DWIDTH 6 0
BBX 6 8 0 0
BITMAP 
28
10
3C
40
38
04
78
00
ENDCHAR
STARTCHAR char144
ENCODING 324
SWIDTH 600 0
DWIDTH 6 0
BBX 6 8 0 0
BITMAP 
00
00
00
00
00
00
00
00
ENDCHAR
STARTCHAR char145
ENCODING 325
SWIDTH 600 0
DWIDTH 6 0
BBX 6 8 0 0
BITMAP 
00
00
00
00
00
00
00
00
ENDCHAR
STARTCHAR char146
ENCODING 326
SWIDTH 600 0
DWIDTH 6 0
BBX 6 8 0 0
BITMAP 
00
00
00
00
00
00
00
00
ENDCHAR
STARTCHAR char147
ENCODING 327
SWIDTH 600 0
DWIDTH 6 0
BBX 6 8 0 0
BITMAP 
00
00
00
00
00
00
00
00
ENDCHAR
STARTCHAR scaron
ENCODING 328
SWIDTH 600 0
DWIDTH 6 0
BBX 6 8 0 0
BITMAP 
28
10
3C
40
38
04
78
00
ENDCHAR
STARTCHAR char149
ENCODING 329
SWIDTH 600 0
DWIDTH 6 0
BBX 6 8 0 0
BITMAP 
00
00
00
00
00
00
00
00
ENDCHAR
STARTCHAR char14A
ENCODING 330
SWIDTH 600 0
DWIDTH 6 0
BBX 6 8 0 0
BITMAP 
00
00
00
00
00
00
00
00
ENDCHAR
STARTCHAR char14B
ENCODING 331
SWIDTH 600 0
DWIDTH 6 0
BBX 6 8 0 0
BITMAP 
00
00
00
00
00
00
00
00
ENDCHAR
STARTCHAR gbreve
ENCODING 332
SWIDTH 600 0
DWIDTH 6 0
BBX 6 8 0 0
BITMAP 
00
6C
38
44
4C
34
04
38
ENDCHAR
STARTCHAR Gbreve
ENCODING 333
SWIDTH 600 0
DWIDTH 6 0
BBX 6 8 0 0
BITMAP 
6C
38
44
40
4C
44
3C
00
ENDCHAR
STARTCHAR Idotaccent
ENCODING 334
SWIDTH 600 0
DWIDTH 6 0
BBX 6 8 0 0
BITMAP 
10
00
38
10
10
10
38
00
ENDCHAR
STARTCHAR scedilla
ENCODING 335
SWIDTH 600 0
DWIDTH 6 0
BBX 6 8 0 0
BITMAP 
00
00
3C
40
38
04
78
10
ENDCHAR
STARTCHAR Scedilla
ENCODING 336
SWIDTH 600 0
DWIDTH 6 0
BBX 6 8 0 0
BITMAP 
00
38
44
30
08
44
38
10
ENDCHAR
STARTCHAR abreve
ENCODING 337
SWIDTH 600 0
DWIDTH 6 0
BBX 6 8 0 0
BITMAP 
28
10
38
04
3C
44
3C
00
ENDCHAR
STARTCHAR Abreve
ENCODING 338
SWIDTH 600 0
DWIDTH 6 0
BBX 6 8 0 0
BITMAP 
28
10
10
28
44
7C
44
00
ENDCHAR
STARTCHAR aogonek
ENCODING 339
SWIDTH 600 0
DWIDTH 6 0
BBX 6 8 0 0
BITMAP 
00
38
04
3C
44
3C
10
0C
ENDCHAR
STARTCHAR Aogonek
ENCODING 340
SWIDTH 600 0
DWIDTH 6 0
BBX 6 8 0 0
BITMAP 
00
10
28
44
7C
44
44
08
ENDCHAR
STARTCHAR cacute
ENCODING 341
SWIDTH 600 0
DWIDTH 6 0
BBX 6 8 0 0
BITMAP 
08
10
3C
40
40
40
3C
00
ENDCHAR
STARTCHAR Cacute
ENCODING 342
SWIDTH 600 0
DWIDTH 6 0
BBX 6 8 0 0
BITMAP 
08
10
38
44
40
44
38
00
ENDCHAR
STARTCHAR ccaron
ENCODING 343
SWIDTH 600 0
DWIDTH 6 0
BBX 6 8 0 0
BITMAP 
28
10
3C
40
40
40
3C
00
ENDCHAR
STARTCHAR Ccaron
ENCODING 344
SWIDTH 600 0
DWIDTH 6 0
BBX 6 8 0 0
BITMAP 
28
10
38
44
40
44
38
00
ENDCHAR
STARTCHAR dcaron
ENCODING 345
SWIDTH 600 0
DWIDTH 6 0
BBX 6 8 0 0
BITMAP 
28
14
04
3C
44
44
3C
00
ENDCHAR
STARTCHAR Dcaron
ENCODING 346
SWIDTH 600 0
DWIDTH 6 0
BBX 6 8 0 0
BITMAP 
28
10
78
44
44
44
78
00
ENDCHAR
STARTCHAR dcroat
ENCODING 347
SWIDTH 600 0
DWIDTH 6 0
BBX 6 8 0 0
BITMAP 
08
1C
08
38
48
48
38
00
ENDCHAR
STARTCHAR ecaron
ENCODING 348
SWIDTH 600 0
DWIDTH 6 0
BBX 6 8 0 0
BITMAP 
28
10
38
44
7C
40
3C
00
ENDCHAR
STARTCHAR Ecaron
ENCODING 349
SWIDTH 600 0
DWIDTH 6 0
BBX 6 8 0 0
BITMAP 
28
10
7C
40
78
40
7C
00
ENDCHAR
STARTCHAR eogonek
ENCODING 350
SWIDTH 600 0
DWIDTH 6 0
BBX 6 8 0 0
BITMAP 
00
38
44
7C
40
3C
10
0C
ENDCHAR
STARTCHAR Eogonek
ENCODING 351
SWIDTH 600 0
DWIDTH 6 0
BBX 6 8 0 0
BITMAP 
00
7C
40
78
40
7C
10
0C
ENDCHAR
STARTCHAR lacute
ENCODING 352
SWIDTH 600 0
DWIDTH 6 0
BBX 6 8 0 0
BITMAP 
08
10
20
20
20
20
30
00
ENDCHAR
STARTCHAR Lacute
ENCODING 353
SWIDTH 600 0
DWIDTH 6 0
BBX 6 8 0 0
BITMAP 
08
50
40
40
40
40
7C
00
ENDCHAR
STARTCHAR lcaron
ENCODING 354
SWIDTH 600 0
DWIDTH 6 0
BBX 6 8 0 0
BITMAP 
00
28
28
20
20
20
30
00
ENDCHAR
STARTCHAR Lcaron
ENCODING 355
SWIDTH 600 0
DWIDTH 6 0
BBX 6 8 0 0
BITMAP 
00
48
48
40
40
40
7C
00
ENDCHAR
STARTCHAR lslash
ENCODING 356
SWIDTH 600 0
DWIDTH 6 0
BBX 6 8 0 0
BITMAP 
00
20
20
30
60
20
30
00
ENDCHAR
STARTCHAR Lslash
ENCODING 357
SWIDTH 600 0
DWIDTH 6 0
BBX 6 8 0 0
BITMAP 
00
20
30
20
60
20
3C
00
ENDCHAR
STARTCHAR nacute
ENCODING 358
SWIDTH 600 0
DWIDTH 6 0
BBX 6 8 0 0
BITMAP 
08
10
00
58
24
24
24
00
ENDCHAR
STARTCHAR Nacute
ENCODING 359
SWIDTH 600 0
DWIDTH 6 0
BBX 6 8 0 0
BITMAP 
08
10
44
64
54
4C
44
00
ENDCHAR
STARTCHAR ncaron
ENCODING 360
SWIDTH 600 0
DWIDTH 6 0
BBX 6 8 0 0
BITMAP 
28
10
00
58
24
24
24
00
ENDCHAR
STARTCHAR Ncaron
ENCODING 361
SWIDTH 600 0
DWIDTH 6 0
BBX 6 8 0 0
BITMAP 
28
10
44
64
54
4C
44
00
ENDCHAR
STARTCHAR ohungarumlaut
ENCODING 362
SWIDTH 600 0
DWIDTH 6 0
BBX 6 8 0 0
BITMAP 
24
48
00
38
44
44
38
00
ENDCHAR
STARTCHAR Ohungarumlaut
ENCODING 363
SWIDTH 600 0
DWIDTH 6 0
BBX 6 8 0 0
BITMAP 
24
48
38
44
44
44
38
00
ENDCHAR
STARTCHAR racute
ENCODING 364
SWIDTH 600 0
DWIDTH 6 0
BBX 6 8 0 0
BITMAP 
08
10
58
64
40
40
40
00
ENDCHAR
STARTCHAR Racute
ENCODING 365
SWIDTH 600 0
DWIDTH 6 0
BBX 6 8 0 0
BITMAP 
08
10
78
44
78
48
44
00
ENDCHAR
STARTCHAR rcaron
ENCODING 366
SWIDTH 600 0
DWIDTH 6 0
BBX 6 8 0 0
BITMAP 
28
10
58
64
40
40
40
00
ENDCHAR
STARTCHAR Rcaron
ENCODING 367
SWIDTH 600 0
DWIDTH 6 0
BBX 6 8 0 0
BITMAP 
28
10
78
44
78
48
44
00
ENDCHAR
STARTCHAR sacute
ENCODING 368
SWIDTH 600 0
DWIDTH 6 0
BBX 6 8 0 0
BITMAP 
08
10
3C
40
38
04
78
00
ENDCHAR
STARTCHAR Sacute
ENCODING 369
SWIDTH 600 0
DWIDTH 6 0
BBX 6 8 0 0
BITMAP 
08
10
3C
40
38
04
78
00
ENDCHAR
STARTCHAR tcaron
ENCODING 370
SWIDTH 600 0
DWIDTH 6 0
BBX 6 8 0 0
BITMAP 
08
28
70
20
20
20
30
00
ENDCHAR
STARTCHAR Tcaron
ENCODING 371
SWIDTH 600 0
DWIDTH 6 0
BBX 6 8 0 0
BITMAP 
28
10
7C
10
10
10
10
00
ENDCHAR
STARTCHAR uni0163
ENCODING 372
SWIDTH 600 0
DWIDTH 6 0
BBX 6 8 0 0
BITMAP 
00
10
7C
10
10
10
18
30
ENDCHAR
STARTCHAR uni0162
ENCODING 373
SWIDTH 600 0
DWIDTH 6 0
BBX 6 8 0 0
BITMAP 
00
7C
10
10
10
10
10
20
ENDCHAR
STARTCHAR uhungarumlaut
ENCODING 374
SWIDTH 600 0
DWIDTH 6 0
BBX 6 8 0 0
BITMAP 
24
48
00
48
48
48
34
00
ENDCHAR
STARTCHAR Uhungarumlaut
ENCODING 375
SWIDTH 600 0
DWIDTH 6 0
BBX 6 8 0 0
BITMAP 
14
28
44
44
44
44
38
00
ENDCHAR
STARTCHAR uring
ENCODING 376
SWIDTH 600 0
DWIDTH 6 0
BBX 6 8 0 0
BITMAP 
30
48
30
48
48
48
34
00
ENDCHAR
STARTCHAR Uring
ENCODING 377
SWIDTH 600 0
DWIDTH 6 0
BBX 6 8 0 0
BITMAP 
10
28
54
44
44
44
38
00
ENDCHAR
STARTCHAR zacute
ENCODING 378
SWIDTH 600 0
DWIDTH 6 0
BBX 6 8 0 0
BITMAP 
08
10
7C
08
10
20
7C
00
ENDCHAR
STARTCHAR Zacute
ENCODING 379
SWIDTH 600 0
DWIDTH 6 0
BBX 6 8 0 0
BITMAP 
08
10
7C
08
10
20
7C
00
ENDCHAR
STARTCHAR zcaron
ENCODING 380
SWIDTH 600 0
DWIDTH 6 0
BBX 6 8 0 0
BITMAP 
28
10
7C
08
10
20
7C
00
ENDCHAR
STARTCHAR Zcaron
ENCODING 381
SWIDTH 600 0
DWIDTH 6 0
BBX 6 8 0 0
BITMAP 
28
10
7C
08
10
20
7C
00
ENDCHAR
STARTCHAR zdotaccent
ENCODING 382
SWIDTH 600 0
DWIDTH 6 0
BBX 6 8 0 0
BITMAP 
10
00
7C
08
10
20
7C
00
ENDCHAR
STARTCHAR Zdotaccent
ENCODING 383
SWIDTH 600 0
DWIDTH 6 0
BBX 6 8 0 0
BITMAP 
10
7C
08
10
10
20
7C
00
ENDCHAR
STARTCHAR uni0401
ENCODING 384
SWIDTH 600 0
DWIDTH 6 0
BBX 6 8 0 0
BITMAP 
44
00
7C
40
78
40
7C
00
ENDCHAR
STARTCHAR uni0402
ENCODING 385
SWIDTH 600 0
DWIDTH 6 0
BBX 6 8 0 0
BITMAP 
00
F0
40
70
48
48
50
20
ENDCHAR
STARTCHAR uni0403
ENCODING 386
SWIDTH 600 0
DWIDTH 6 0
BBX 6 8 0 0
BITMAP 
10
20
78
40
40
40
40
00
ENDCHAR
STARTCHAR uni0404
ENCODING 387
SWIDTH 600 0
DWIDTH 6 0
BBX 6 8 0 0
BITMAP 
00
38
40
70
40
40
38
00
ENDCHAR
STARTCHAR uni0405
ENCODING 388
SWIDTH 600 0
DWIDTH 6 0
BBX 6 8 0 0
BITMAP 
00
38
44
30
08
44
38
00
ENDCHAR
STARTCHAR uni0406
ENCODING 389
SWIDTH 600 0
DWIDTH 6 0
BBX 6 8 0 0
BITMAP 
00
38
10
10
10
10
38
00
ENDCHAR
STARTCHAR uni0407
ENCODING 390
SWIDTH 600 0
DWIDTH 6 0
BBX 6 8 0 0
BITMAP 
44
00
38
10
10
10
38
00
ENDCHAR
STARTCHAR uni0408
ENCODING 391
SWIDTH 600 0
DWIDTH 6 0
BBX 6 8 0 0
BITMAP 
00
1C
08
08
08
48
30
00
ENDCHAR
STARTCHAR uni0409
ENCODING 392
SWIDTH 600 0
DWIDTH 6 0
BBX 6 8 0 0
BITMAP 
00
30
50
50
58
54
58
00
ENDCHAR
STARTCHAR uni040A
ENCODING 393
SWIDTH 600 0
DWIDTH 6 0
BBX 6 8 0 0
BITMAP 
00
50
50
70
58
54
58
00
ENDCHAR
STARTCHAR uni040B
ENCODING 394
SWIDTH 600 0
DWIDTH 6 0
BBX 6 8 0 0
BITMAP 
00
F0
40
70
48
48
48
00
ENDCHAR
STARTCHAR uni040C
ENCODING 395
SWIDTH 600 0
DWIDTH 6 0
BBX 6 8 0 0
BITMAP 
08
54
48
50
70
48
44
00
ENDCHAR
STARTCHAR uni040E
ENCODING 396
SWIDTH 600 0
DWIDTH 6 0
BBX 6 8 0 0
BITMAP 
28
10
44
24
18
50
20
00
ENDCHAR
STARTCHAR uni040F
ENCODING 397
SWIDTH 600 0
DWIDTH 6 0
BBX 6 8 0 0
BITMAP 
00
44
44
44
44
44
7C
10
ENDCHAR
STARTCHAR uni0410
ENCODING 398
SWIDTH 600 0
DWIDTH 6 0
BBX 6 8 0 0
BITMAP 
00
10
28
44
7C
44
44
00
ENDCHAR
STARTCHAR uni0411
ENCODING 399
SWIDTH 600 0
DWIDTH 6 0
BBX 6 8 0 0
BITMAP 
00
78
40
78
44
44
78
00
ENDCHAR
STARTCHAR uni0412
ENCODING 400
SWIDTH 600 0
DWIDTH 6 0
BBX 6 8 0 0
BITMAP 
00
78
44
78
44
44
78
00
ENDCHAR
STARTCHAR uni0413
ENCODING 401
SWIDTH 600 0
DWIDTH 6 0
BBX 6 8 0 0
BITMAP 
00
78
40
40
40
40
40
00
ENDCHAR
STARTCHAR uni0414
ENCODING 402
SWIDTH 600 0
DWIDTH 6 0
BBX 6 8 0 0
BITMAP 
00
18
28
48
48
48
FC
84
ENDCHAR
STARTCHAR uni0415
ENCODING 403
SWIDTH 600 0
DWIDTH 6 0
BBX 6 8 0 0
BITMAP 
00
7C
40
78
40
40
7C
00
ENDCHAR
STARTCHAR uni0416
ENCODING 404
SWIDTH 600 0
DWIDTH 6 0
BBX 6 8 0 0
BITMAP 
00
54
54
38
38
54
54
00
ENDCHAR
STARTCHAR uni0417
ENCODING 405
SWIDTH 600 0
DWIDTH 6 0
BBX 6 8 0 0
BITMAP 
00
38
44
18
04
44
38
00
ENDCHAR
STARTCHAR uni0418
ENCODING 406
SWIDTH 600 0
DWIDTH 6 0
BBX 6 8 0 0
BITMAP 
00
44
4C
54
64
44
44
00
ENDCHAR
STARTCHAR uni0419
ENCODING 407
SWIDTH 600 0
DWIDTH 6 0
BBX 6 8 0 0
BITMAP 
28
10
44
4C
54
64
44
00
ENDCHAR
STARTCHAR uni041A
ENCODING 408
SWIDTH 600 0
DWIDTH 6 0
BBX 6 8 0 0
BITMAP 
00
44
48
50
70
48
44
00
ENDCHAR
STARTCHAR uni041B
ENCODING 409
SWIDTH 600 0
DWIDTH 6 0
BBX 6 8 0 0
BITMAP 
00
18
28
48
48
48
48
00
ENDCHAR
STARTCHAR uni041C
ENCODING 410
SWIDTH 600 0
DWIDTH 6 0
BBX 6 8 0 0
BITMAP 
00
44
6C
54
54
44
44
00
ENDCHAR
STARTCHAR uni041D
ENCODING 411
SWIDTH 600 0
DWIDTH 6 0
BBX 6 8 0 0
BITMAP 
00
44
44
7C
44
44
44
00
ENDCHAR
STARTCHAR uni041E
ENCODING 412
SWIDTH 600 0
DWIDTH 6 0
BBX 6 8 0 0
BITMAP 
00
38
44
44
44
44
38
00
ENDCHAR
STARTCHAR uni041F
ENCODING 413
SWIDTH 600 0
DWIDTH 6 0
BBX 6 8 0 0
BITMAP 
00
78
48
48
48
48
48
00
ENDCHAR
STARTCHAR uni0420
ENCODING 414
SWIDTH 600 0
DWIDTH 6 0
BBX 6 8 0 0
BITMAP 
00
78
44
44
78
40
40
00
ENDCHAR
STARTCHAR uni0421
ENCODING 415
SWIDTH 600 0
DWIDTH 6 0
BBX 6 8 0 0
BITMAP 
00
38
44
40
40
44
38
00
ENDCHAR
STARTCHAR uni0422
ENCODING 416
SWIDTH 600 0
DWIDTH 6 0
BBX 6 8 0 0
BITMAP 
00
7C
10
10
10
10
10
00
ENDCHAR
STARTCHAR uni0423
ENCODING 417
SWIDTH 600 0
DWIDTH 6 0
BBX 6 8 0 0
BITMAP 
00
44
44
28
10
20
40
00
ENDCHAR
STARTCHAR uni0424
ENCODING 418
SWIDTH 600 0
DWIDTH 6 0
BBX 6 8 0 0
BITMAP 
00
10
38
54
54
38
10
00
ENDCHAR
STARTCHAR uni0425
ENCODING 419
SWIDTH 600 0
DWIDTH 6 0
BBX 6 8 0 0
BITMAP 
00
44
28
10
10
28
44
00
ENDCHAR
STARTCHAR uni0426
ENCODING 420
SWIDTH 600 0
DWIDTH 6 0
BBX 6 8 0 0
BITMAP 
00
48
48
48
48
48
7C
04
ENDCHAR
STARTCHAR uni0427
ENCODING 421
SWIDTH 600 0
DWIDTH 6 0
BBX 6 8 0 0
BITMAP 
00
48
48
48
78
08
08
00
ENDCHAR
STARTCHAR uni0428
ENCODING 422
SWIDTH 600 0
DWIDTH 6 0
BBX 6 8 0 0
BITMAP 
00
44
54
54
54
54
7C
00
ENDCHAR
STARTCHAR uni0429
ENCODING 423
SWIDTH 600 0
DWIDTH 6 0
BBX 6 8 0 0
BITMAP 
00
44
54
54
54
54
7C
04
ENDCHAR
STARTCHAR uni042A
ENCODING 424
SWIDTH 600 0
DWIDTH 6 0
BBX 6 8 0 0
BITMAP 
00
60
20
30
28
28
30
00
ENDCHAR
STARTCHAR uni042B
ENCODING 425
SWIDTH 600 0
DWIDTH 6 0
BBX 6 8 0 0
BITMAP 
00
40
44
64
54
54
64
00
ENDCHAR
STARTCHAR uni042C
ENCODING 426
SWIDTH 600 0
DWIDTH 6 0
BBX 6 8 0 0
BITMAP 
00
20
20
30
28
28
30
00
ENDCHAR
STARTCHAR uni042D
ENCODING 427
SWIDTH 600 0
DWIDTH 6 0
BBX 6 8 0 0
BITMAP 
00
70
08
38
08
08
70
00
ENDCHAR
STARTCHAR uni042E
ENCODING 428
SWIDTH 600 0
DWIDTH 6 0
BBX 6 8 0 0
BITMAP 
00
48
54
74
54
54
48
00
ENDCHAR
STARTCHAR uni042F
ENCODING 429
SWIDTH 600 0
DWIDTH 6 0
BBX 6 8 0 0
BITMAP 
00
3C
44
44
3C
24
44
00
ENDCHAR
STARTCHAR uni0430
ENCODING 430
SWIDTH 600 0
DWIDTH 6 0
BBX 6 8 0 0
BITMAP 
00
00
38
04
3C
44
3C
00
ENDCHAR
STARTCHAR uni0431
ENCODING 431
SWIDTH 600 0
DWIDTH 6 0
BBX 6 8 0 0
BITMAP 
08
30
40
78
44
44
38
00
ENDCHAR
STARTCHAR uni0432
ENCODING 432
SWIDTH 600 0
DWIDTH 6 0
BBX 6 8 0 0
BITMAP 
00
00
78
44
78
44
78
00
ENDCHAR
STARTCHAR uni0433
ENCODING 433
SWIDTH 600 0
DWIDTH 6 0
BBX 6 8 0 0
BITMAP 
00
00
78
40
40
40
40
00
ENDCHAR
STARTCHAR uni0434
ENCODING 434
SWIDTH 600 0
DWIDTH 6 0
BBX 6 8 0 0
BITMAP 
00
00
18
28
48
48
FC
84
ENDCHAR
STARTCHAR uni0435
ENCODING 435
SWIDTH 600 0
DWIDTH 6 0
BBX 6 8 0 0
BITMAP 
00
00
38
44
7C
40
3C
00
ENDCHAR
STARTCHAR uni0436
ENCODING 436
SWIDTH 600 0
DWIDTH 6 0
BBX 6 8 0 0
BITMAP 
00
00
54
38
10
38
54
00
ENDCHAR
STARTCHAR uni0437
ENCODING 437
SWIDTH 600 0
DWIDTH 6 0
BBX 6 8 0 0
BITMAP 
00
00
38
44
18
44
38
00
ENDCHAR
STARTCHAR uni0438
ENCODING 438
SWIDTH 600 0
DWIDTH 6 0
BBX 6 8 0 0
BITMAP 
00
00
24
24
2C
34
24
00
ENDCHAR
STARTCHAR uni0439
ENCODING 439
SWIDTH 600 0
DWIDTH 6 0
BBX 6 8 0 0
BITMAP 
14
08
24
24
2C
34
24
00
ENDCHAR
STARTCHAR uni043A
ENCODING 440
SWIDTH 600 0
DWIDTH 6 0
BBX 6 8 0 0
BITMAP 
00
00
44
48
50
68
44
00
ENDCHAR
STARTCHAR uni043B
ENCODING 441
SWIDTH 600 0
DWIDTH 6 0
BBX 6 8 0 0
BITMAP 
00
00
18
28
48
48
48
00
ENDCHAR
STARTCHAR uni043C
ENCODING 442
SWIDTH 600 0
DWIDTH 6 0
BBX 6 8 0 0
BITMAP 
00
00
44
6C
54
44
44
00
ENDCHAR
STARTCHAR uni043D
ENCODING 443
SWIDTH 600 0
DWIDTH 6 0
BBX 6 8 0 0
BITMAP 
00
00
24
24
3C
24
24
00
ENDCHAR
STARTCHAR uni043E
ENCODING 444
SWIDTH 600 0
DWIDTH 6 0
BBX 6 8 0 0
BITMAP 
00
00
38
44
44
44
38
00
ENDCHAR
STARTCHAR uni043F
ENCODING 445
SWIDTH 600 0
DWIDTH 6 0
BBX 6 8 0 0
BITMAP 
00
00
7C
44
44
44
44
00
ENDCHAR
STARTCHAR uni0440
ENCODING 446
SWIDTH 600 0
DWIDTH 6 0
BBX 6 8 0 0
BITMAP 
00
00
78
44
44
78
40
40
ENDCHAR
STARTCHAR uni0441
ENCODING 447
SWIDTH 600 0
DWIDTH 6 0
BBX 6 8 0 0
BITMAP 
00
00
3C
40
40
40
3C
00
ENDCHAR
STARTCHAR uni0442
ENCODING 448
SWIDTH 600 0
DWIDTH 6 0
BBX 6 8 0 0
BITMAP 
00
00
7C
10
10
10
10
00
ENDCHAR
STARTCHAR uni0443
ENCODING 449
SWIDTH 600 0
DWIDTH 6 0
BBX 6 8 0 0
BITMAP 
00
00
44
44
4C
34
04
38
ENDCHAR
STARTCHAR uni0444
ENCODING 450
SWIDTH 600 0
DWIDTH 6 0
BBX 6 8 0 0
BITMAP 
00
00
10
38
54
38
10
00
ENDCHAR
STARTCHAR uni0445
ENCODING 451
SWIDTH 600 0
DWIDTH 6 0
BBX 6 8 0 0
BITMAP 
00
00
44
28
10
28
44
00
ENDCHAR
STARTCHAR uni0446
ENCODING 452
SWIDTH 600 0
DWIDTH 6 0
BBX 6 8 0 0
BITMAP 
00
00
48
48
48
48
7C
04
ENDCHAR
STARTCHAR uni0447
ENCODING 453
SWIDTH 600 0
DWIDTH 6 0
BBX 6 8 0 0
BITMAP 
00
00
48
48
78
08
08
00
ENDCHAR
STARTCHAR uni0448
ENCODING 454
SWIDTH 600 0
DWIDTH 6 0
BBX 6 8 0 0
BITMAP 
00
00
44
54
54
54
7C
00
ENDCHAR
STARTCHAR uni0449
ENCODING 455
SWIDTH 600 0
DWIDTH 6 0
BBX 6 8 0 0
BITMAP 
00
00
44
54
54
54
7C
04
ENDCHAR
STARTCHAR uni044A
ENCODING 456
SWIDTH 600 0
DWIDTH 6 0
BBX 6 8 0 0
BITMAP 
00
00
60
20
30
28
30
00
ENDCHAR
STARTCHAR uni044B
ENCODING 457
SWIDTH 600 0
DWIDTH 6 0
BBX 6 8 0 0
BITMAP 
00
00
44
44
64
54
64
00
ENDCHAR
STARTCHAR uni044C
ENCODING 458
SWIDTH 600 0
DWIDTH 6 0
BBX 6 8 0 0
BITMAP 
00
00
20
20
30
28
30
00
ENDCHAR
STARTCHAR uni044D
ENCODING 459
SWIDTH 600 0
DWIDTH 6 0
BBX 6 8 0 0
BITMAP 
00
00
78
04
3C
04
78
00
ENDCHAR
STARTCHAR uni044E
ENCODING 460
SWIDTH 600 0
DWIDTH 6 0
BBX 6 8 0 0
BITMAP 
00
00
48
54
74
54
48
00
ENDCHAR
STARTCHAR uni044F
ENCODING 461
SWIDTH 600 0
DWIDTH 6 0
BBX 6 8 0 0
BITMAP 
00
00
3C
44
3C
24
44
00
ENDCHAR
STARTCHAR uni2116
ENCODING 462
SWIDTH 600 0
DWIDTH 6 0
BBX 6 8 0 0
BITMAP 
00
58
54
78
50
5C
50
00
ENDCHAR
STARTCHAR uni0451
ENCODING 463
SWIDTH 600 0
DWIDTH 6 0
BBX 6 8 0 0
BITMAP 
44
00
38
44
7C
40
3C
00
ENDCHAR
STARTCHAR uni0452
ENCODING 464
SWIDTH 600 0
DWIDTH 6 0
BBX 6 8 0 0
BITMAP 
00
40
E0
40
70
48
48
10
ENDCHAR
STARTCHAR uni0453
ENCODING 465
SWIDTH 600 0
DWIDTH 6 0
BBX 6 8 0 0
BITMAP 
00
10
20
70
40
40
40
00
ENDCHAR
STARTCHAR uni0454
ENCODING 466
SWIDTH 600 0
DWIDTH 6 0
BBX 6 8 0 0
BITMAP 
00
00
38
40
78
40
38
00
ENDCHAR
STARTCHAR uni0455
ENCODING 467
SWIDTH 600 0
DWIDTH 6 0
BBX 6 8 0 0
BITMAP 
00
00
3C
40
38
04
78
00
ENDCHAR
STARTCHAR uni0456
ENCODING 468
SWIDTH 600 0
DWIDTH 6 0
BBX 6 8 0 0
BITMAP 
00
10
00
10
10
10
10
00
ENDCHAR
STARTCHAR uni0457
ENCODING 469
SWIDTH 600 0
DWIDTH 6 0
BBX 6 8 0 0
BITMAP 
44
00
30
10
10
10
38
00
ENDCHAR
STARTCHAR uni0458
ENCODING 470
SWIDTH 600 0
DWIDTH 6 0
BBX 6 8 0 0
BITMAP 
00
04
00
04
04
04
24
18
ENDCHAR
STARTCHAR uni0459
ENCODING 471
SWIDTH 600 0
DWIDTH 6 0
BBX 6 8 0 0
BITMAP 
00
00
20
50
58
54
58
00
ENDCHAR
STARTCHAR uni045A
ENCODING 472
SWIDTH 600 0
DWIDTH 6 0
BBX 6 8 0 0
BITMAP 
00
00
50
50
78
54
58
00
ENDCHAR
STARTCHAR uni045B
ENCODING 473
SWIDTH 600 0
DWIDTH 6 0
BBX 6 8 0 0
BITMAP 
00
40
E0
40
78
48
48
00
ENDCHAR
STARTCHAR uni045C
ENCODING 474
SWIDTH 600 0
DWIDTH 6 0
BBX 6 8 0 0
BITMAP 
08
50
44
48
50
68
44
00
ENDCHAR
STARTCHAR uni045E
ENCODING 475
SWIDTH 600 0
DWIDTH 6 0
BBX 6 8 0 0
BITMAP 
00
28
10
44
28
10
60
00
ENDCHAR
ENDFONT
